<svg width="21" height="21" viewBox="0 0 21 21" fill="none" xmlns="http://www.w3.org/2000/svg">
<path d="M3.2933 5.99918C3.30451 5.88481 3.28881 5.76941 3.24746 5.66219C3.20612 5.55497 3.14027 5.45891 3.05518 5.38168L1.2933 3.25668V2.94043H6.76955L11.0039 12.2254L14.7264 2.94043H19.9489V3.25668L18.4414 4.7023C18.3777 4.75069 18.3284 4.81554 18.2987 4.88987C18.2691 4.96421 18.2603 5.04522 18.2733 5.12418V15.7492C18.2603 15.8281 18.2691 15.9091 18.2987 15.9835C18.3284 16.0578 18.3777 16.1227 18.4414 16.1711L19.9139 17.6167V17.9329H12.5039V17.6167L14.0314 16.1361C14.1802 15.9873 14.1802 15.9404 14.1802 15.7142V7.12793L9.93393 17.9054H9.35955L4.42205 7.12793V14.3504C4.37893 14.6548 4.4808 14.9598 4.6958 15.1786L6.68018 17.5848V17.9011H1.05518V17.5886L3.03955 15.1786C3.25018 14.9598 3.3483 14.6511 3.2933 14.3504V5.99918Z" fill="white"/>
</svg>
